<svg width="565" height="225" xmlns="http://www.w3.org/2000/svg">
 <!-- Created with Method Draw - http://github.com/duopixel/Method-Draw/ -->
 <g>
  <title>background</title>
  <rect fill="#fff" id="canvas_background" height="227" width="567" y="-1" x="-1"/>
  <g display="none" overflow="visible" y="0" x="0" height="100%" width="100%" id="canvasGrid">
   <rect fill="url(#gridpattern)" stroke-width="0" y="0" x="0" height="100%" width="100%"/>
  </g>
 </g>
 <g>
  <title>Layer 1</title>
  <path id="svg_2" d="m140,165" opacity="0.5" stroke-width="1.5" stroke="#000" fill="#fff"/>
  <path d="m118.5,147c0,0 1.472137,3.763931 -3,6c-10.733124,5.366562 -31.397697,1.046722 -51,-7c-19.448898,-7.983765 -32.605108,-16.611038 -35,-30c-3.174254,-17.746094 -0.337149,-40.611862 12,-56c12.834564,-16.00856 40.787674,-25.495995 85,-28c18.969604,-1.074364 35.16452,2.431046 39,10c5.945343,11.732559 4.201477,39.694016 -16,74c-19.996513,33.957901 -41.35125,53.834244 -63,70c-15.557583,11.617294 -21,14 -23,14c-1,0 2.812737,-14.352356 22,-30c19.140251,-15.609314 42,-24 54,-28c3,-1 5.182434,-0.465546 2,5c-6.769691,11.626312 -13.821075,16.298691 -17,18c-0.881676,0.471863 -1.3871,-1.768585 4,-4c7.618507,-3.155685 14.823746,-6.486252 17,-7c0.973251,-0.229752 0.693436,1.458801 2,2c0.923874,0.38269 5.092697,-1.76355 13,-5c9.114914,-3.730728 12.292892,-4.707108 13,-4c1.414215,1.414215 1,3 2,3c2,0 1.585785,-2.585785 3,-4c0.707108,-0.707108 2.076126,-0.38269 3,0c1.306564,0.541199 3,1 6,1c3,0 4.458801,-0.306564 5,1c0.38269,0.923874 2.458801,5.693436 3,7c0.38269,0.923874 2.026749,1.229752 3,1c2.176254,-0.513748 6.693436,-1.458801 8,-2c0.923874,-0.38269 1.823746,0.486252 4,1c3.89299,0.919006 13.199249,0.380081 23,-5c5.11145,-2.805908 7.458801,-3.693436 8,-5c0.38269,-0.923874 -0.893066,0.001907 -1,3c-0.50032,14.026749 0.789124,38.248077 -3,59c-2.048004,11.216309 -3.647491,14.972504 -8,16c-1.946503,0.459503 -7.222763,-4.511505 -11,-27c-2.490158,-14.825623 -0.362732,-28.557388 12,-38c12.814255,-9.787476 23,-11 29,-12l4,-1" id="svg_11" stroke-width="1.5" stroke="#000" fill="none"/>
  <path d="m328.5,40c0,0 -1.233032,2.208099 -15,25c-18.734711,31.016281 -52.079071,85.031326 -71,101c-2.755402,2.32547 -4,2 -8,2c-2,0 -6.491104,-5.261414 -4,-17c4.089081,-19.268616 22.106598,-34.580322 30,-38c4.678802,-2.027008 8.088623,-2.069626 12,3c12.03244,15.59552 20.888977,46.133591 44,54c20.848114,7.096176 40.430817,-1.552979 51,-20c14.148621,-24.694458 12,-68 12,-95c0,-22 -4.006195,-38.863426 -13,-43c-11.845551,-5.448185 -28.393433,-2.914024 -40,7c-14.020538,11.97599 -21,30 -21,39c0,7 7.424011,14.963257 18,17c9.81955,1.891083 21,-1 32,-7l6,-4l3,-4l0,-1" id="svg_27" stroke-width="1.5" stroke="#000" fill="none"/>
  <path d="m387.5,148c0,0 1,0 1,-4c0,-1 -1,-1 -2,-1c-1,0 -2.056641,-0.082474 -5,2c-4.081696,2.887863 -4,6 -4,7c0,2 1,2 4,2c2,0 9.026001,-3.187988 12,-8c1.662506,-2.689987 1.693451,-5.541199 3,-5c0.923889,0.38269 -0.765381,2.152237 0,4c0.541199,1.306564 1.076111,2.38269 2,2c2.613129,-1.082397 2,-3 3,-3c1,0 0.61731,1.076126 1,2c0.541199,1.306564 2.014984,1.24437 4,1c4.092224,-0.503769 6,-2 9,-2c1,0 2.152252,-0.765366 4,0c2.613129,1.082397 3,3 4,3c5,0 10.076111,0.38269 11,0c1.306549,-0.541199 0.292908,0.292892 1,1c0.707092,0.707108 1.549164,-0.95517 5,-2c2.871277,-0.869354 4.053497,-0.459503 6,0c2.176239,0.513748 8.17215,11.470596 13,36c3.689453,18.745331 2,29 2,35c0,1 -2.221497,1.180634 -3,0c-14.822418,-22.47879 -18.780609,-40.910919 -14,-53c8.065125,-20.394943 44,-29 76,-39l15,-1l4,-1l-4,3" id="svg_29" stroke-width="1.5" stroke="#000" fill="none"/>
 </g>
</svg>